<?xml version="1.0" encoding="utf-8"?>
<!-- Generator: Adobe Illustrator 26.0.1, SVG Export Plug-In . SVG Version: 6.00 Build 0)  -->
<svg version="1.1" id="Шар_1" xmlns="http://www.w3.org/2000/svg" xmlns:xlink="http://www.w3.org/1999/xlink" x="0px" y="0px"
	 viewBox="0 0 16 15" style="enable-background:new 0 0 16 15;" xml:space="preserve">
<path d="M7.4,3.1C6,1.7,3.4,2.2,2.5,3.9C2.1,4.8,2,5.9,2.8,7.5c0.8,1.4,2.4,3.2,5.2,5.1c2.9-1.9,4.5-3.6,5.2-5.1
	c0.8-1.5,0.7-2.7,0.3-3.5C12.6,2.2,10,1.7,8.6,3.1L8,3.7L7.4,3.1z M7.9,2.4C7.9,2.5,8,2.5,8,2.6c0,0,0.1-0.1,0.1-0.1
	c3.8-3.3,12.6,3-0.1,11.1C-4.8,5.4,4.1-0.9,7.9,2.4z"/>
</svg>
