<?xml version="1.0" encoding="utf-8"?>
<!-- Generator: Adobe Illustrator 26.0.1, SVG Export Plug-In . SVG Version: 6.00 Build 0)  -->
<svg version="1.1" id="Шар_1" xmlns="http://www.w3.org/2000/svg" xmlns:xlink="http://www.w3.org/1999/xlink" x="0px" y="0px"
	 viewBox="0 0 16 15" style="enable-background:new 0 0 16 15;" xml:space="preserve">
<style type="text/css">
	.st0{fill:url(#SVGID_1_);}
	.st1{fill:url(#SVGID_00000024703863228458739230000006286142667828162730_);}
</style>
<g id="Шар_1_00000032616502999149719920000003935945587313252258_">
	<g id="XMLID_00000166636662469238102880000014211965166351491491_">
		<g>
			
				<linearGradient id="SVGID_1_" gradientUnits="userSpaceOnUse" x1="4.6691" y1="1075.2301" x2="10.2963" y2="1065.4836" gradientTransform="matrix(1 0 0 1 0 -1064)">
				<stop  offset="0" style="stop-color:#EA5455"/>
				<stop  offset="1" style="stop-color:#FEB692"/>
			</linearGradient>
			<path class="st0" d="M13.5,4c0.4,0.8,0.5,2-0.3,3.5C12.5,9,10.9,10.7,8,12.6c-2.8-1.9-4.4-3.7-5.2-5.1C2,5.9,2.1,4.8,2.5,3.9
				C3.4,2.2,6,1.7,7.4,3.1L8,3.7l0.6-0.6C10,1.7,12.6,2.2,13.5,4z"/>
			
				<linearGradient id="SVGID_00000093869101629144690720000012782468769892334496_" gradientUnits="userSpaceOnUse" x1="4.2923" y1="1075.9376" x2="10.7265" y2="1064.7932" gradientTransform="matrix(1 0 0 1 0 -1064)">
				<stop  offset="0" style="stop-color:#EA5455"/>
				<stop  offset="1" style="stop-color:#FEB692"/>
			</linearGradient>
			<path style="fill:url(#SVGID_00000093869101629144690720000012782468769892334496_);" d="M8.1,2.5c3.8-3.3,12.6,3-0.1,11.1
				C-4.8,5.4,4.1-0.9,7.9,2.4C7.9,2.5,8,2.5,8,2.6L8.1,2.5z M13.2,7.5C14,6,13.9,4.8,13.5,4C12.6,2.2,10,1.7,8.6,3.1L8,3.7L7.4,3.1
				C6,1.7,3.4,2.2,2.5,3.9C2.1,4.8,2,5.9,2.8,7.5c0.8,1.4,2.4,3.2,5.2,5.1C10.9,10.7,12.5,9,13.2,7.5z"/>
		</g>
	</g>
</g>
</svg>
