<?xml version="1.0" encoding="utf-8"?>
<!-- Generator: Adobe Illustrator 26.0.1, SVG Export Plug-In . SVG Version: 6.00 Build 0)  -->
<svg version="1.1" xmlns="http://www.w3.org/2000/svg" xmlns:xlink="http://www.w3.org/1999/xlink" x="0px" y="0px"
	 viewBox="0 0 3710 3710" style="enable-background:new 0 0 3710 3710;" xml:space="preserve">
<style type="text/css">
	.st0{fill:#FFFFFF;}
	.st1{fill:url(#SVGID_1_);}
	.st2{fill:url(#SVGID_00000155837704096565715540000010945268789943580569_);}
	.st3{fill:#91B3FA;}
	.st4{fill:url(#SVGID_00000047056719362358988220000006069639163745336455_);}
	.st5{fill:url(#SVGID_00000120561090588734645640000013527573613972969606_);}
	.st6{fill:url(#SVGID_00000162347336811048380470000015908582900464974467_);}
	.st7{fill:url(#SVGID_00000109710863589414816360000008650582381058584708_);}
	.st8{fill:url(#SVGID_00000155106778375252264080000017319549299080716219_);}
	.st9{fill:url(#SVGID_00000127019389059509174280000015415929733112144805_);}
	.st10{fill:url(#SVGID_00000178190541017981622540000006580890849559003062_);}
	.st11{fill:url(#SVGID_00000142897293126576598400000016008501242816848808_);}
	.st12{fill:url(#SVGID_00000127756345345374156710000009894642844246690219_);}
	.st13{fill:url(#SVGID_00000153693277919109324270000014236507238507996325_);}
	.st14{fill:url(#SVGID_00000047026704983800623690000012535841224986473645_);}
	.st15{fill:url(#SVGID_00000023970925263362487380000002930722063583954342_);}
	.st16{fill:url(#SVGID_00000145774225580212328720000013257697146881514137_);}
	.st17{fill:url(#SVGID_00000022529254306096056430000006370267866057029264_);}
	.st18{fill:url(#SVGID_00000008864150664178819430000015893100442153495947_);}
	.st19{fill:url(#SVGID_00000108288142890633647190000012943403959007798165_);}
	.st20{fill:url(#SVGID_00000098920182956710481210000012096451493409701777_);}
	.st21{fill:url(#SVGID_00000127035451188381089510000008472603363537668772_);}
	.st22{fill:url(#SVGID_00000008842390611859653050000008523118361079555005_);}
	.st23{fill:url(#SVGID_00000176032650688176102950000002021879641272583858_);}
	.st24{fill:url(#SVGID_00000128458341890740034820000017814352000320808095_);}
	.st25{fill:url(#SVGID_00000024701963082684169600000013953558559608297636_);}
	.st26{opacity:0.37;fill:#FFFFFF;}
	.st27{fill:url(#SVGID_00000030466470832421090460000000685458199879622024_);}
	.st28{fill:url(#SVGID_00000175290618356563162330000009887236929222015643_);}
	.st29{fill:url(#SVGID_00000021835747387557537360000010687292546591060880_);}
	.st30{fill:url(#SVGID_00000051378863251266301030000017384949392593803148_);}
	.st31{fill:url(#SVGID_00000096748583897003198830000013189749650814522808_);}
	.st32{fill:url(#SVGID_00000085219764557588541120000006870664645994335664_);}
	.st33{fill:url(#SVGID_00000081626941607983920220000006765301613194731917_);}
	.st34{fill:url(#SVGID_00000099632360111932407250000011695774589429993605_);}
	.st35{fill:url(#SVGID_00000034074386122621481320000013569652638218637486_);}
	.st36{fill:url(#SVGID_00000162320136326340342260000006579420080733183371_);}
	.st37{fill:url(#SVGID_00000181049879088785448140000017052127917951884168_);}
	.st38{fill:url(#SVGID_00000011001799401785264080000008813700758737029032_);}
	.st39{fill:url(#SVGID_00000021830627574567701990000017176190441968312488_);}
	.st40{fill:url(#SVGID_00000150061157479182917510000012113859069358207653_);}
	.st41{fill:url(#SVGID_00000039840127485372005730000003655056733589393799_);}
</style>
<g id="Background">
	<g>
		<g>
			<rect class="st0" width="3710" height="3710"/>
		</g>
	</g>
</g>
<g id="Illustration">
	<g>
		<linearGradient id="SVGID_1_" gradientUnits="userSpaceOnUse" x1="3539.4087" y1="3696.2283" x2="1561.8756" y2="1591.1129">
			<stop  offset="0" style="stop-color:#DAE3FE"/>
			<stop  offset="1" style="stop-color:#E9EFFD"/>
		</linearGradient>
		<path class="st1" d="M2945.7,2851.7c-73,75.2-138.3,119.5-188.3,152.9c-487.8,325.7-1045.3,231.8-1217.7,199.7
			c-278.1-51.8-512.9-88.3-714.6-270.5c-458.3-414.1-436-1277.9-85.8-1813c41.5-63.4,391.2-581.8,950-654.9
			c13.7-1.8,23.9-2.8,32.8-3.7c86.4-9.2,622.1-57.5,1058.8,308.5c62.5,52.4,163.1,146.9,256.4,291
			C3378.4,1588.4,3379.5,2404.5,2945.7,2851.7z"/>
		<g>
			<g>
				<g>
					
						<linearGradient id="SVGID_00000005258929215811595890000002858704770173608638_" gradientUnits="userSpaceOnUse" x1="3394.7637" y1="4189.5122" x2="222.4789" y2="-616.9828">
						<stop  offset="0" style="stop-color:#09005D"/>
						<stop  offset="1" style="stop-color:#1A0F91"/>
					</linearGradient>
					<path style="fill:url(#SVGID_00000005258929215811595890000002858704770173608638_);" d="M1154.7,585.6
						c-66.7,5.8-117.8,61.6-118,128.6c-1.2,409.3-3.1,1821,23.6,2320.7c2.8,52.9,46.2,94.5,99.2,95.1
						c262.2,2.8,1016.3,8,1444.5-19.4c89.2-5.7,158.6-79.6,158.5-168.9c-0.5-429.6-7.4-1637.6-66.2-2189.8
						c-7.1-66.2-60.2-117.8-126.6-123C2283.7,606.6,1524.4,553.4,1154.7,585.6z"/>
					<path class="st3" d="M1142,821.4c-5.1,350.1-19.8,1514.7,5.8,1944.6c3.7,62.8,52.5,112.4,112.8,114.5
						c248.1,8.6,884.4,25.4,1246.9-14.5c65.3-7.2,115.2-63.8,116.9-132.3c9.1-357.3,33.6-1442,8.7-1867.1
						c-4-67.8-55.8-121.9-120.7-126.3c-268.6-18.1-958.5-59.8-1266.8-34.2C1187.7,711,1142.9,760.8,1142,821.4z"/>
					
						<linearGradient id="SVGID_00000165947339828595970930000017753646097946895762_" gradientUnits="userSpaceOnUse" x1="1741.3406" y1="649.1923" x2="2020.2117" y2="649.1923">
						<stop  offset="0" style="stop-color:#4F52FF"/>
						<stop  offset="1" style="stop-color:#4042E2"/>
					</linearGradient>
					<path style="fill:url(#SVGID_00000165947339828595970930000017753646097946895762_);" d="M1741.4,646.5
						c0.2,9.7,7.9,17.5,17.6,17.8c47.7,1.5,182.2,5.6,242.3,7.7c11.9,0.4,20.9-10.4,18.4-22c-0.2-0.4-1.7-15.2-16.9-16.3
						c-40.7-2.8-163.3-10.5-244.4-5.8C1741.8,628.9,1740.9,647.8,1741.4,646.5z"/>
				</g>
			</g>
			<g>
				<g>
					
						<linearGradient id="SVGID_00000168077418131854678060000008615677338447096966_" gradientUnits="userSpaceOnUse" x1="1772.5642" y1="2598.9338" x2="3269.4429" y2="765.5988">
						<stop  offset="0" style="stop-color:#E1473D"/>
						<stop  offset="1" style="stop-color:#E9605A"/>
					</linearGradient>
					<path style="fill:url(#SVGID_00000168077418131854678060000008615677338447096966_);" d="M1433.2,1878.7
						c0,0,342-85.8,703.3-34.1c101.7,14.6,191.7,73.7,246.6,160.5c98.9,156.4,238.6,435.2,209,725.9l-155.2,38.4
						c0,0-107.2-345-227.9-485.4c0,0-142.9,325.8-135.7,504.7c0.2,5.1,0.5,10,1,14.8c16.4,175-686.1,32.7-686.1,32.7L1433.2,1878.7z
						"/>
					
						<linearGradient id="SVGID_00000050640967924755459930000016220900256691794615_" gradientUnits="userSpaceOnUse" x1="1752.4783" y1="1798.0168" x2="1745.3829" y2="1315.5149" gradientTransform="matrix(0.9329 0.3602 -0.3602 0.9329 756.8203 -140.6929)">
						<stop  offset="0" style="stop-color:#FEBBBA"/>
						<stop  offset="1" style="stop-color:#FF928E"/>
					</linearGradient>
					<path style="fill:url(#SVGID_00000050640967924755459930000016220900256691794615_);" d="M1802.9,1586.6l-72.8,231.9
						c-6.8,21.6,0,44.7,16.9,57.7c39,30,116,77.8,210.1,76.4c17.2-0.3,31.7-14.9,32.9-33l25.9-387.6L1802.9,1586.6z"/>
					<g>
						
							<linearGradient id="SVGID_00000104673470553089744690000002270529556738110368_" gradientUnits="userSpaceOnUse" x1="12712.5684" y1="1162.7728" x2="12290.875" y2="1485.4326" gradientTransform="matrix(0.9672 0.2541 -0.2541 0.9672 -9938.2715 -2874.2493)">
							<stop  offset="0" style="stop-color:#FEBBBA"/>
							<stop  offset="1" style="stop-color:#FF928E"/>
						</linearGradient>
						<path style="fill:url(#SVGID_00000104673470553089744690000002270529556738110368_);" d="M2084.8,1332.5
							c0,0,28.3,182.6,10.5,269.9s-13.9,148-118,139.2c-104-8.8-174.8-80.4-197.7-178c0,0-36.4-150.7-6.3-200.6
							C1803.6,1313.1,2084.8,1332.5,2084.8,1332.5z"/>
						
							<linearGradient id="SVGID_00000107573950067148922500000007121725795297523628_" gradientUnits="userSpaceOnUse" x1="2032.8801" y1="967.3642" x2="1826.8881" y2="1585.3424">
							<stop  offset="0" style="stop-color:#09005D"/>
							<stop  offset="1" style="stop-color:#1A0F91"/>
						</linearGradient>
						<path style="fill:url(#SVGID_00000107573950067148922500000007121725795297523628_);" d="M1829.8,1510.9l12.6,3.3
							c0,0-23.9-119.9,26.5-126.6c50.4-6.7,240.4,3.9,296.1-49.9c53.7-51.8,41.2-140.3-3-175.7c-2.8-2.2-6.9-1.7-9.3,0.9l-6.2,6.8
							c-4.2,4.6-12,1.7-12.1-4.6l0,0c-0.1-6-7.3-9.1-11.6-5c-16.9,16-57.4,38.6-148,31.9c-128.7-9.6-222.9,18.8-247.1,103
							c-1.5,5.3-8.1,6.8-11.9,2.8c-7.6-7.9-21.4-14.3-45.1-3.1c-41.1,19.5-46.7,96.6,11.3,176.5c2.8,3.8,1.3,9.3-3.2,10.7
							c-15.7,5.2-41.1,20.7,3.4,61.9c45.5,42.2,77.6,47.3,90.2,47.4c3.4,0,6.3-2.3,7-5.6l15.1-76.4c0.8-4,4.7-6.4,8.6-5.4
							L1829.8,1510.9z"/>
						
							<linearGradient id="SVGID_00000010301240712337896570000004384218401908563863_" gradientUnits="userSpaceOnUse" x1="12660.2637" y1="1094.4091" x2="12238.5693" y2="1417.069" gradientTransform="matrix(0.9672 0.2541 -0.2541 0.9672 -9938.2715 -2874.2493)">
							<stop  offset="0" style="stop-color:#FEBBBA"/>
							<stop  offset="1" style="stop-color:#FF928E"/>
						</linearGradient>
						<path style="fill:url(#SVGID_00000010301240712337896570000004384218401908563863_);" d="M1828.8,1527.4
							c0,0,0.3-111.8-54.4-94.8c-54.7,17-6.5,123.7,30.2,137.5L1828.8,1527.4z"/>
					</g>
					<g>
						
							<linearGradient id="SVGID_00000163785405581235461990000009476159206238334136_" gradientUnits="userSpaceOnUse" x1="1400.2745" y1="2294.9668" x2="2897.1504" y2="461.6351">
							<stop  offset="0" style="stop-color:#E1473D"/>
							<stop  offset="1" style="stop-color:#E9605A"/>
						</linearGradient>
						<path style="fill:url(#SVGID_00000163785405581235461990000009476159206238334136_);" d="M1447.5,2613.3
							c-15.1-107,83.5-301.4,129.3-361.1c13.1-17.1,20.4-37.9,20.6-59.5c1.3-151.5-62.3-248.8-164.2-314.1
							c0,0-369.9,431-275.7,762.4c10.2,35.8,25.9,66.5,45.9,92.9C1218.2,2609.1,1374.7,2619.1,1447.5,2613.3z"/>
						
							<linearGradient id="SVGID_00000051352305218391964720000007936531771596790402_" gradientUnits="userSpaceOnUse" x1="1296.5657" y1="1483.2089" x2="1687.9497" y2="3192.9453">
							<stop  offset="0" style="stop-color:#FF928E"/>
							<stop  offset="1" style="stop-color:#FE7062"/>
						</linearGradient>
						<path style="fill:url(#SVGID_00000051352305218391964720000007936531771596790402_);" d="M1442.2,2534.8l-14.1-1.6
							c11.9-104.9,104-234.4,143-285.2l11.3,8.6C1544.1,2306.4,1453.8,2433.4,1442.2,2534.8z"/>
						
							<linearGradient id="SVGID_00000179605159845331216280000015902071707951625919_" gradientUnits="userSpaceOnUse" x1="1403.78" y1="2480.2708" x2="1656.6187" y2="3145.6353">
							<stop  offset="0" style="stop-color:#FEBBBA"/>
							<stop  offset="1" style="stop-color:#FF928E"/>
						</linearGradient>
						<path style="fill:url(#SVGID_00000179605159845331216280000015902071707951625919_);" d="M1449.3,2608.3
							c-41.6,0.1-233,6.6-250.7,120.8c165.1,218.3,620.1,139.6,620.1,139.6v-85c0,0-285.2-51.8-357.7-168.9
							C1458.5,2610.7,1454.1,2608.3,1449.3,2608.3z"/>
					</g>
					
						<linearGradient id="SVGID_00000065043615568968772470000011230603270915038378_" gradientUnits="userSpaceOnUse" x1="1730.9702" y1="2326.3718" x2="2000.6095" y2="3035.9485">
						<stop  offset="0" style="stop-color:#FEBBBA"/>
						<stop  offset="1" style="stop-color:#FF928E"/>
					</linearGradient>
					<path style="fill:url(#SVGID_00000065043615568968772470000011230603270915038378_);" d="M1779.7,2850.1
						c0,0,67.2-158.5,185.6-102.3c118.4,56.2,109.1,93,109.1,93L1779.7,2850.1z"/>
					
						<linearGradient id="SVGID_00000149371978939875790730000012397070320761727892_" gradientUnits="userSpaceOnUse" x1="2009.7544" y1="2996.5417" x2="2359.9238" y2="2471.2881">
						<stop  offset="0" style="stop-color:#4F52FF"/>
						<stop  offset="1" style="stop-color:#4042E2"/>
					</linearGradient>
					<path style="fill:url(#SVGID_00000149371978939875790730000012397070320761727892_);" d="M1764.6,2883L1764.6,2883
						c0.9,12,11.2,21.1,23.2,20.7l613.4-21.4c9.5-0.3,17.8-6.6,20.7-15.8l17.8-57c4.4-14-5.6-28.4-20.3-29.1l-223.7-11.9
						c-2-0.1-4.1,0.1-6.1,0.5l-407.5,90.3C1771.2,2861.8,1763.7,2871.9,1764.6,2883z"/>
					
						<linearGradient id="SVGID_00000139999091783883549400000017369913950834052481_" gradientUnits="userSpaceOnUse" x1="2129.2744" y1="3076.2212" x2="2479.4441" y2="2550.9673">
						<stop  offset="0" style="stop-color:#4F52FF"/>
						<stop  offset="1" style="stop-color:#4042E2"/>
					</linearGradient>
					<polygon style="fill:url(#SVGID_00000139999091783883549400000017369913950834052481_);" points="2175.8,2860.7 2192.7,2782 
						2422.5,2793 2407.3,2858.2 					"/>
					
						<linearGradient id="SVGID_00000075842802874284341770000012120953303877694138_" gradientUnits="userSpaceOnUse" x1="2376.0591" y1="2422.3569" x2="3606.8008" y2="1752.9166">
						<stop  offset="0" style="stop-color:#4F52FF"/>
						<stop  offset="1" style="stop-color:#4042E2"/>
					</linearGradient>
					<path style="fill:url(#SVGID_00000075842802874284341770000012120953303877694138_);" d="M2058,2014.1
						c-13,106.3-71.5,538-88.3,661.4c-2.4,17.3,11.4,32.6,28.9,32.1l992.4-28.4c13-0.4,24.1-9.5,26.9-22.2l154.4-695.2
						c4.1-18.4-10.6-35.6-29.3-34.5l-1058.5,62C2070.8,1990,2059.7,2000.5,2058,2014.1z"/>
					
						<linearGradient id="SVGID_00000081625907550477472750000002948095132060897679_" gradientUnits="userSpaceOnUse" x1="2511.8367" y1="2195.9763" x2="2491.238" y2="2762.4282">
						<stop  offset="0" style="stop-color:#4F52FF"/>
						<stop  offset="1" style="stop-color:#4042E2"/>
					</linearGradient>
					<path style="fill:url(#SVGID_00000081625907550477472750000002948095132060897679_);" d="M2456.9,2450.1l-146.7,416.3
						l341.1,7.2l28.4-421c1.3-19.8-15.1-36.2-34.8-34.8l-159.3,10.6C2472.6,2429.2,2461.3,2437.7,2456.9,2450.1z"/>
					
						<linearGradient id="SVGID_00000075130577236543124800000001259585547659535252_" gradientUnits="userSpaceOnUse" x1="2338.0974" y1="3076.9382" x2="2868.8953" y2="2179.5081">
						<stop  offset="0" style="stop-color:#4F52FF"/>
						<stop  offset="1" style="stop-color:#4042E2"/>
					</linearGradient>
					<path style="fill:url(#SVGID_00000075130577236543124800000001259585547659535252_);" d="M2172,2872.3L2172,2872.3
						c-3.8,11.5,4.8,23.2,16.8,23.2h534.1c9.8,0,17.7-7.9,17.7-17.7v-22.9c0-10.1-8.4-18.1-18.5-17.7l-534.1,22.9
						C2180.7,2860.4,2174.3,2865.3,2172,2872.3z"/>
				</g>
				<path class="st3" d="M2043,2453.3l-7-0.9l48.8-384.5c3-23.9,22.6-42.2,46.6-43.7l914.7-55.2l0.4,7.1l-914.7,55.2
					c-20.6,1.2-37.4,17-40,37.5L2043,2453.3z"/>
				
					<rect x="1978.4" y="2600.4" transform="matrix(0.125 -0.9922 0.9922 0.125 -815.7615 4283.02)" class="st3" width="83.9" height="7.1"/>
				<g>
					<g>
						<g>
							
								<linearGradient id="SVGID_00000085956925724064589120000008527092577447178413_" gradientUnits="userSpaceOnUse" x1="1836.45" y1="1860.8451" x2="2002.1757" y2="1748.4889" gradientTransform="matrix(0.9856 -0.1691 0.1691 0.9856 -316.3687 156.5187)">
								<stop  offset="0" style="stop-color:#4F52FF"/>
								<stop  offset="1" style="stop-color:#4042E2"/>
							</linearGradient>
							<path style="fill:url(#SVGID_00000085956925724064589120000008527092577447178413_);" d="M1987.4,1645.3
								c-110.2,8.3-174.3-105.6-174.9-106.8l7.4-4.1c0.6,1.1,62.1,110.4,166.9,102.4L1987.4,1645.3z"/>
						</g>
						
							<linearGradient id="SVGID_00000153683368246019360190000009553414957146391708_" gradientUnits="userSpaceOnUse" x1="1977.1414" y1="1641.0533" x2="2032.3308" y2="1641.0533">
							<stop  offset="0" style="stop-color:#4F52FF"/>
							<stop  offset="1" style="stop-color:#4042E2"/>
						</linearGradient>
						<path style="fill:url(#SVGID_00000153683368246019360190000009553414957146391708_);" d="M2032.3,1641.1
							c0,6.5-5.3,11.8-11.8,11.8H1989c-6.5,0-11.8-5.3-11.8-11.8l0,0c0-6.5,5.3-11.8,11.8-11.8h31.5
							C2027,1629.2,2032.3,1634.5,2032.3,1641.1L2032.3,1641.1z"/>
					</g>
					<g>
						
							<linearGradient id="SVGID_00000096774709534705122460000010145687836315933342_" gradientUnits="userSpaceOnUse" x1="2400.2976" y1="1425.5779" x2="1141.5438" y2="1633.5457" gradientTransform="matrix(0.9856 -0.1691 0.1691 0.9856 -316.3687 156.5187)">
							<stop  offset="0" style="stop-color:#4F52FF"/>
							<stop  offset="1" style="stop-color:#4042E2"/>
						</linearGradient>
						<path style="fill:url(#SVGID_00000096774709534705122460000010145687836315933342_);" d="M1820.1,1412.1
							c0,0,39.6-202.9,156.1-222c0,0-33-16.6-67.4,1.4c-34.4,18-121.4,116.8-117.8,225.6C1814.6,1425.6,1820.1,1412.1,1820.1,1412.1
							z"/>
						
							<linearGradient id="SVGID_00000075126829534339045600000018414095206947801254_" gradientUnits="userSpaceOnUse" x1="1988.131" y1="1139.9873" x2="1792.4385" y2="1521.0729">
							<stop  offset="0" style="stop-color:#4F52FF"/>
							<stop  offset="1" style="stop-color:#4042E2"/>
						</linearGradient>
						<path style="fill:url(#SVGID_00000075126829534339045600000018414095206947801254_);" d="M1799.9,1402.5
							c-60.6,12.3-53.1,88.9-53.1,88.9c-4.4,55.6,11.9,83.2,32.7,96.3c14.2,9,32.1,9.8,47.1,2.2c15-7.6,24.9-22.5,26.2-39.2
							c1.1-15.1,2.4-29.5,3.5-34.6C1858.9,1503.7,1860.4,1390.2,1799.9,1402.5z"/>
					</g>
					
						<linearGradient id="SVGID_00000108300477447378644530000008053203650390522809_" gradientUnits="userSpaceOnUse" x1="1908.1644" y1="1394.5364" x2="2096.9905" y2="1212.5767">
						<stop  offset="0" style="stop-color:#4F52FF"/>
						<stop  offset="1" style="stop-color:#4042E2"/>
					</linearGradient>
					<path style="fill:url(#SVGID_00000108300477447378644530000008053203650390522809_);" d="M1805.4,1421.9
						c-12.6-2.2-25,4.5-30,16.2c-36.2,83.9,8.2,138.4,30.1,139.6c23,1.2,22.5-109.5,17.7-137.8
						C1821.1,1428,1813.5,1423.3,1805.4,1421.9z"/>
				</g>
			</g>
		</g>
		<g>
			<circle class="st0" cx="2679.8" cy="1401.6" r="373.4"/>
			<g>
				
					<linearGradient id="SVGID_00000044865263244636189570000004620734822841552543_" gradientUnits="userSpaceOnUse" x1="2603.9526" y1="626.79" x2="2650.3015" y2="1025.391">
					<stop  offset="0" style="stop-color:#FF928E"/>
					<stop  offset="1" style="stop-color:#FE7062"/>
				</linearGradient>
				<path style="fill:url(#SVGID_00000044865263244636189570000004620734822841552543_);" d="M2665.8,1636.3
					c-17.6,1.2-34-7-43.1-21.7l-152.9-245.5c-14.3-23-6.6-54.5,17.2-70.4c23.8-15.9,54.7-10.1,69.1,12.9l106,170.4l139.9-285
					c12.6-25.6,42.7-37.3,67.4-26.2c24.6,11.1,34.4,40.8,21.9,66.3l-180.8,368.6c-8.3,16.9-24.7,28.5-43,30.3
					C2667,1636.2,2666.4,1636.3,2665.8,1636.3z"/>
			</g>
		</g>
		<g>
			<g>
				
					<linearGradient id="SVGID_00000057146046711612882620000000066586695594198714_" gradientUnits="userSpaceOnUse" x1="-2249.0601" y1="2473.4832" x2="-179.3282" y2="3917.4824" gradientTransform="matrix(-1 0 0 1 -644.2802 0)">
					<stop  offset="0" style="stop-color:#FF928E"/>
					<stop  offset="1" style="stop-color:#FE7062"/>
				</linearGradient>
				<path style="fill:url(#SVGID_00000057146046711612882620000000066586695594198714_);" d="M1462,3142.8v-442.9
					c0-58.2-46.8-105.5-105-106.2c-174.6-1.9-534.8-2-829.6,22.8c-40.2,3.4-71.5,36.4-73,76.7L427,3121.4c-2,56.6,42.7,104,99.4,105
					l834.2,15.9C1416.3,3243.4,1462,3198.5,1462,3142.8z"/>
				<path class="st0" d="M1360.8,2747.8c0.7,37.7-0.4,97.5-1.3,136.1c-0.5,20.1-18.1,35.4-38.1,33.1l-143.7-16.8
					c-19.1-2.2-32.6-19.9-29.8-39l17.6-117.7c2.5-16.7,16.9-29.1,33.8-29.1h127.4C1345.3,2714.4,1360.5,2729.2,1360.8,2747.8z"/>
				<path class="st26" d="M985.2,2970.8l-119.9,12.9c-16.8,1.8-31.1-12-29.9-28.9l26.2-356.6c50.3-1.6,99.8-2.8,147.7-3.6V2944
					C1009.4,2957.8,999,2969.4,985.2,2970.8z"/>
				<path class="st0" d="M936.1,2909c-0.4,6.4-5.7,11.4-12,11.4c-0.2,0-0.5,0-0.7,0c-6.7-0.4-11.7-6.1-11.3-12.7l18.1-311.3
					c8.1-0.2,16.1-0.4,24.2-0.6L936.1,2909z"/>
				<g>
					
						<linearGradient id="SVGID_00000025433840442744049300000014676899843529151151_" gradientUnits="userSpaceOnUse" x1="-1893.1522" y1="2736.4812" x2="-2150.4304" y2="3110.3381" gradientTransform="matrix(-1 0 0 1 -644.2802 0)">
						<stop  offset="0" style="stop-color:#09005D"/>
						<stop  offset="1" style="stop-color:#1A0F91"/>
					</linearGradient>
					<path style="fill:url(#SVGID_00000025433840442744049300000014676899843529151151_);" d="M1294.4,2860.1c2.1,0,3.9-1.6,4-3.8
						l6.2-98c0.1-2.2-1.5-4.1-3.8-4.3c-2.3-0.2-4.1,1.5-4.3,3.8l-6.2,98c-0.1,2.2,1.5,4.1,3.8,4.3
						C1294.2,2860.1,1294.3,2860.1,1294.4,2860.1z"/>
					
						<linearGradient id="SVGID_00000121265125578305734150000002418874634379732152_" gradientUnits="userSpaceOnUse" x1="-1883.9011" y1="2742.8479" x2="-2141.1797" y2="3116.7051" gradientTransform="matrix(-1 0 0 1 -644.2802 0)">
						<stop  offset="0" style="stop-color:#09005D"/>
						<stop  offset="1" style="stop-color:#1A0F91"/>
					</linearGradient>
					<path style="fill:url(#SVGID_00000121265125578305734150000002418874634379732152_);" d="M1281.6,2860.1c2.2,0,3.9-1.7,4-3.9
						l3.3-99.9c0.1-2.2-1.7-4.1-3.9-4.2c-2.6-0.1-4.1,1.7-4.2,3.9l-3.3,99.9c-0.1,2.2,1.7,4.1,3.9,4.2
						C1281.4,2860.1,1281.5,2860.1,1281.6,2860.1z"/>
					
						<linearGradient id="SVGID_00000141445946660640576700000013758384410355394728_" gradientUnits="userSpaceOnUse" x1="-1872.7391" y1="2750.5291" x2="-2130.0178" y2="3124.3865" gradientTransform="matrix(-1 0 0 1 -644.2802 0)">
						<stop  offset="0" style="stop-color:#09005D"/>
						<stop  offset="1" style="stop-color:#1A0F91"/>
					</linearGradient>
					<path style="fill:url(#SVGID_00000141445946660640576700000013758384410355394728_);" d="M1264.2,2860.1
						c-2.2-0.1-3.9-2-3.8-4.2c1.6-33.6,4.6-97.6,4.7-99.8c0-2.2,1.8-4,4-4c2.2,0,4,1.8,4,4c0,1.7-3.9,83.7-4.7,100.1
						c-0.1,2.2-1.9,3.8-4,3.8C1264.3,2860.1,1264.3,2860.1,1264.2,2860.1z M1265,2756.2L1265,2756.2L1265,2756.2z"/>
					
						<linearGradient id="SVGID_00000059992384650149273020000016774220279466752928_" gradientUnits="userSpaceOnUse" x1="-1853.4324" y1="2763.8157" x2="-2110.7102" y2="3137.6719" gradientTransform="matrix(-1 0 0 1 -644.2802 0)">
						<stop  offset="0" style="stop-color:#09005D"/>
						<stop  offset="1" style="stop-color:#1A0F91"/>
					</linearGradient>
					<path style="fill:url(#SVGID_00000059992384650149273020000016774220279466752928_);" d="M1237.6,2864.2c4.3,0,7.9-3.4,8-7.8
						c3.4-96.8,2.8-99,2.4-100.4c-1.2-4.3-5.6-6.8-9.9-5.6c-3.9,1.1-6.4,4.9-5.9,8.8c0.3,5.8-1.5,62.1-2.7,96.7
						c-0.2,4.4,3.3,8.2,7.7,8.3C1237.4,2864.2,1237.5,2864.2,1237.6,2864.2z"/>
					
						<linearGradient id="SVGID_00000056422872332531601530000015777160833143964863_" gradientUnits="userSpaceOnUse" x1="-1840.7018" y1="2772.5764" x2="-2097.98" y2="3146.4333" gradientTransform="matrix(-1 0 0 1 -644.2802 0)">
						<stop  offset="0" style="stop-color:#09005D"/>
						<stop  offset="1" style="stop-color:#1A0F91"/>
					</linearGradient>
					<path style="fill:url(#SVGID_00000056422872332531601530000015777160833143964863_);" d="M1220.2,2860.1c2.2,0,4-1.8,4-4v-98
						c0-2.2-1.8-4-4-4c-2.2,0-4,1.8-4,4v98C1216.2,2858.3,1218,2860.1,1220.2,2860.1z"/>
					
						<linearGradient id="SVGID_00000139269554630415722610000011461283817727026338_" gradientUnits="userSpaceOnUse" x1="-1832.7987" y1="2778.0156" x2="-2090.0752" y2="3151.8701" gradientTransform="matrix(-1 0 0 1 -644.2802 0)">
						<stop  offset="0" style="stop-color:#09005D"/>
						<stop  offset="1" style="stop-color:#1A0F91"/>
					</linearGradient>
					<path style="fill:url(#SVGID_00000139269554630415722610000011461283817727026338_);" d="M1206.1,2860.1c2.2,0,4-1.7,4-3.9
						c0.8-34.1,2.6-89.7,4.2-96.4c0.7-1.3,0.7-2.9-0.1-4.2c-1.2-1.9-3.7-2.4-5.6-1.2c-2.2,1.4-4.3,2.8-6.5,101.5
						C1202,2858.3,1203.8,2860.1,1206.1,2860.1L1206.1,2860.1z"/>
					
						<linearGradient id="SVGID_00000111191584991756087110000011018115883194109880_" gradientUnits="userSpaceOnUse" x1="-1906.3901" y1="2727.3721" x2="-2163.6672" y2="3101.2275" gradientTransform="matrix(-1 0 0 1 -644.2802 0)">
						<stop  offset="0" style="stop-color:#09005D"/>
						<stop  offset="1" style="stop-color:#1A0F91"/>
					</linearGradient>
					<path style="fill:url(#SVGID_00000111191584991756087110000011018115883194109880_);" d="M1316,2869.1c4.2,0,7.8-3.3,8-7.6
						l5.4-102.9c0.2-4.4-3.2-8.2-7.6-8.4c-4.2-0.3-8.2,3.2-8.4,7.6l-5.4,102.9c-0.2,4.4,3.2,8.2,7.6,8.4
						C1315.7,2869.1,1315.9,2869.1,1316,2869.1z"/>
				</g>
			</g>
			<g>
				
					<linearGradient id="SVGID_00000017489970926100729260000011220532741503411610_" gradientUnits="userSpaceOnUse" x1="-1956.5543" y1="2094.644" x2="-503.032" y2="3108.7295" gradientTransform="matrix(-1 0 0 1 -644.2802 0)">
					<stop  offset="0" style="stop-color:#FF928E"/>
					<stop  offset="1" style="stop-color:#FE7062"/>
				</linearGradient>
				<path style="fill:url(#SVGID_00000017489970926100729260000011220532741503411610_);" d="M1242.5,2543.4v-311.1
					c0-40.9-32.8-74.1-73.7-74.6c-122.6-1.3-375.6-1.4-582.6,16c-28.2,2.4-50.2,25.5-51.2,53.9l-19.3,300.7
					c-1.4,39.8,30,73,69.8,73.8l585.8,11.1C1210.4,2614,1242.5,2582.5,1242.5,2543.4z"/>
				<path class="st0" d="M1171.5,2266c0.5,26.5-0.3,68.5-0.9,95.6c-0.3,14.1-12.7,24.9-26.8,23.2l-100.9-11.8
					c-13.4-1.6-22.9-14-20.9-27.4l12.4-82.7c1.8-11.7,11.8-20.4,23.7-20.4h89.5C1160.5,2242.6,1171.2,2253,1171.5,2266z"/>
				<path class="st26" d="M907.7,2422.6l-84.2,9.1c-11.8,1.3-21.8-8.4-21-20.3l18.4-250.5c35.3-1.1,70.1-1.9,103.7-2.5v245.3
					C924.6,2413.5,917.3,2421.6,907.7,2422.6z"/>
				<path class="st0" d="M873.2,2379.2c-0.3,4.5-4,8-8.4,8c-0.2,0-0.3,0-0.5,0c-4.7-0.3-8.2-4.3-8-8.9l12.7-218.6
					c5.7-0.1,11.3-0.3,17-0.4L873.2,2379.2z"/>
				<g>
					
						<linearGradient id="SVGID_00000065776828168942632530000004630630085413185957_" gradientUnits="userSpaceOnUse" x1="-1737.126" y1="2258.0503" x2="-1917.8059" y2="2520.6003" gradientTransform="matrix(-1 0 0 1 -644.2802 0)">
						<stop  offset="0" style="stop-color:#09005D"/>
						<stop  offset="1" style="stop-color:#1A0F91"/>
					</linearGradient>
					<path style="fill:url(#SVGID_00000065776828168942632530000004630630085413185957_);" d="M1124.8,2344.9c1.5,0,2.7-1.1,2.8-2.6
						l4.4-68.9c0.1-1.6-1.1-2.9-2.6-3c-1.6-0.1-2.9,1.1-3,2.6l-4.4,68.9c-0.1,1.6,1.1,2.9,2.6,3
						C1124.7,2344.9,1124.7,2344.9,1124.8,2344.9z"/>
					
						<linearGradient id="SVGID_00000080171110516093336110000010996729622014197642_" gradientUnits="userSpaceOnUse" x1="-1730.6294" y1="2262.5212" x2="-1911.3094" y2="2525.0715" gradientTransform="matrix(-1 0 0 1 -644.2802 0)">
						<stop  offset="0" style="stop-color:#09005D"/>
						<stop  offset="1" style="stop-color:#1A0F91"/>
					</linearGradient>
					<path style="fill:url(#SVGID_00000080171110516093336110000010996729622014197642_);" d="M1115.8,2344.9c1.5,0,2.8-1.2,2.8-2.7
						l2.3-70.2c0-1.6-1.2-2.9-2.7-2.9c-1.8-0.1-2.9,1.2-2.9,2.7l-2.3,70.2C1112.9,2343.5,1114.2,2344.8,1115.8,2344.9
						C1115.7,2344.9,1115.8,2344.9,1115.8,2344.9z"/>
					
						<linearGradient id="SVGID_00000038385115820184590800000006532216723787790773_" gradientUnits="userSpaceOnUse" x1="-1722.7905" y1="2267.9155" x2="-1903.4709" y2="2530.4666" gradientTransform="matrix(-1 0 0 1 -644.2802 0)">
						<stop  offset="0" style="stop-color:#09005D"/>
						<stop  offset="1" style="stop-color:#1A0F91"/>
					</linearGradient>
					<path style="fill:url(#SVGID_00000038385115820184590800000006532216723787790773_);" d="M1103.6,2344.9
						c-1.6-0.1-2.8-1.4-2.7-3c1.1-23.6,3.3-68.5,3.3-70.1c0-1.5,1.3-2.8,2.8-2.8c1.6,0,2.8,1.3,2.8,2.8c0,1.2-2.7,58.8-3.3,70.3
						c-0.1,1.5-1.3,2.7-2.8,2.7C1103.7,2344.9,1103.7,2344.9,1103.6,2344.9z M1104.2,2271.9L1104.2,2271.9L1104.2,2271.9z"/>
					
						<linearGradient id="SVGID_00000047040065636173882480000001332846627607461030_" gradientUnits="userSpaceOnUse" x1="-1709.2318" y1="2277.2466" x2="-1889.9117" y2="2539.7969" gradientTransform="matrix(-1 0 0 1 -644.2802 0)">
						<stop  offset="0" style="stop-color:#09005D"/>
						<stop  offset="1" style="stop-color:#1A0F91"/>
					</linearGradient>
					<path style="fill:url(#SVGID_00000047040065636173882480000001332846627607461030_);" d="M1084.9,2347.7c3,0,5.5-2.4,5.6-5.4
						c2.4-68,2-69.5,1.7-70.5c-0.8-3-3.9-4.8-6.9-4c-2.8,0.8-4.5,3.4-4.1,6.2c0.2,4.1-1.1,43.6-1.9,67.9c-0.1,3.1,2.3,5.7,5.4,5.8
						C1084.8,2347.7,1084.9,2347.7,1084.9,2347.7z"/>
					
						<linearGradient id="SVGID_00000088855749680707795060000015588696144103093927_" gradientUnits="userSpaceOnUse" x1="-1700.2915" y1="2283.3989" x2="-1880.9717" y2="2545.9492" gradientTransform="matrix(-1 0 0 1 -644.2802 0)">
						<stop  offset="0" style="stop-color:#09005D"/>
						<stop  offset="1" style="stop-color:#1A0F91"/>
					</linearGradient>
					<path style="fill:url(#SVGID_00000088855749680707795060000015588696144103093927_);" d="M1072.7,2344.9c1.6,0,2.8-1.3,2.8-2.8
						v-68.9c0-1.6-1.3-2.8-2.8-2.8c-1.6,0-2.8,1.3-2.8,2.8v68.9C1069.9,2343.6,1071.1,2344.9,1072.7,2344.9z"/>
					
						<linearGradient id="SVGID_00000071530807241741481550000010171680446849829559_" gradientUnits="userSpaceOnUse" x1="-1694.7412" y1="2287.2188" x2="-1875.4203" y2="2549.7678" gradientTransform="matrix(-1 0 0 1 -644.2802 0)">
						<stop  offset="0" style="stop-color:#09005D"/>
						<stop  offset="1" style="stop-color:#1A0F91"/>
					</linearGradient>
					<path style="fill:url(#SVGID_00000071530807241741481550000010171680446849829559_);" d="M1062.8,2344.9c1.5,0,2.8-1.2,2.8-2.8
						c0.5-23.9,1.8-63,2.9-67.7c0.5-0.9,0.5-2-0.1-2.9c-0.9-1.3-2.6-1.7-3.9-0.8c-1.5,1-3,2-4.6,71.3
						C1060,2343.6,1061.2,2344.9,1062.8,2344.9L1062.8,2344.9z"/>
					
						<linearGradient id="SVGID_00000051347799173015493910000009121367560886199187_" gradientUnits="userSpaceOnUse" x1="-1746.4226" y1="2251.6531" x2="-1927.1027" y2="2514.2034" gradientTransform="matrix(-1 0 0 1 -644.2802 0)">
						<stop  offset="0" style="stop-color:#09005D"/>
						<stop  offset="1" style="stop-color:#1A0F91"/>
					</linearGradient>
					<path style="fill:url(#SVGID_00000051347799173015493910000009121367560886199187_);" d="M1140,2351.2c3,0,5.5-2.3,5.6-5.4
						l3.8-72.3c0.2-3.1-2.2-5.8-5.3-5.9c-3-0.2-5.8,2.2-5.9,5.3l-3.8,72.3c-0.2,3.1,2.2,5.8,5.3,5.9
						C1139.8,2351.2,1139.9,2351.2,1140,2351.2z"/>
				</g>
			</g>
		</g>
	</g>
</g>
</svg>
